<?xml version="1.0" encoding="UTF-8"?>
<svg xmlns="http://www.w3.org/2000/svg" viewBox="0 0 1259 586" role="img" aria-label="Euromiti logo">
  <path d="M 1238.0 394.0 L 1232.0 394.0 L 1231.0 395.0 L 1219.0 395.0 L 1218.0 396.0 L 1189.0 396.0 L 1188.0 395.0 L 1175.0 395.0 L 1174.0 394.0 L 1168.0 394.0 L 1167.0 400.0 L 1180.0 402.0 L 1181.0 403.0 L 1183.0 403.0 L 1185.0 405.0 L 1184.0 416.0 L 1183.0 417.0 L 1183.0 422.0 L 1182.0 423.0 L 1182.0 428.0 L 1181.0 429.0 L 1181.0 434.0 L 1180.0 435.0 L 1180.0 440.0 L 1179.0 441.0 L 1179.0 446.0 L 1178.0 447.0 L 1178.0 452.0 L 1177.0 453.0 L 1177.0 457.0 L 1176.0 458.0 L 1176.0 462.0 L 1175.0 463.0 L 1175.0 467.0 L 1174.0 468.0 L 1172.0 482.0 L 1170.0 487.0 L 1170.0 491.0 L 1169.0 492.0 L 1169.0 496.0 L 1167.0 501.0 L 1167.0 505.0 L 1166.0 506.0 L 1166.0 509.0 L 1165.0 510.0 L 1165.0 513.0 L 1163.0 518.0 L 1163.0 522.0 L 1161.0 526.0 L 1161.0 530.0 L 1160.0 531.0 L 1160.0 534.0 L 1159.0 535.0 L 1159.0 538.0 L 1158.0 539.0 L 1158.0 542.0 L 1156.0 546.0 L 1155.0 552.0 L 1150.0 554.0 L 1146.0 554.0 L 1145.0 555.0 L 1138.0 556.0 L 1135.0 558.0 L 1134.0 562.0 L 1147.0 562.0 L 1148.0 561.0 L 1188.0 561.0 L 1189.0 562.0 L 1203.0 562.0 L 1204.0 561.0 L 1205.0 557.0 L 1200.0 556.0 L 1199.0 555.0 L 1196.0 555.0 L 1195.0 554.0 L 1192.0 554.0 L 1191.0 553.0 L 1188.0 553.0 L 1186.0 551.0 L 1187.0 549.0 L 1188.0 538.0 L 1189.0 537.0 L 1189.0 532.0 L 1190.0 531.0 L 1190.0 526.0 L 1191.0 525.0 L 1191.0 520.0 L 1192.0 519.0 L 1192.0 515.0 L 1193.0 514.0 L 1193.0 509.0 L 1194.0 508.0 L 1194.0 504.0 L 1195.0 503.0 L 1195.0 499.0 L 1196.0 498.0 L 1196.0 494.0 L 1197.0 493.0 L 1197.0 489.0 L 1198.0 488.0 L 1198.0 484.0 L 1199.0 483.0 L 1199.0 479.0 L 1200.0 478.0 L 1200.0 474.0 L 1202.0 469.0 L 1202.0 465.0 L 1204.0 460.0 L 1205.0 451.0 L 1206.0 450.0 L 1206.0 447.0 L 1207.0 446.0 L 1207.0 443.0 L 1208.0 442.0 L 1208.0 439.0 L 1210.0 434.0 L 1210.0 430.0 L 1211.0 429.0 L 1211.0 426.0 L 1212.0 425.0 L 1212.0 422.0 L 1213.0 421.0 L 1213.0 418.0 L 1214.0 417.0 L 1216.0 407.0 L 1219.0 403.0 L 1235.0 400.0 L 1237.0 398.0 Z M 1024.0 394.0 L 1021.0 399.0 L 1021.0 401.0 L 1019.0 405.0 L 1019.0 408.0 L 1017.0 412.0 L 1017.0 415.0 L 1016.0 416.0 L 1016.0 419.0 L 1015.0 420.0 L 1015.0 423.0 L 1014.0 424.0 L 1013.0 429.0 L 1018.0 428.0 L 1023.0 420.0 L 1030.0 413.0 L 1037.0 409.0 L 1039.0 409.0 L 1043.0 407.0 L 1046.0 407.0 L 1047.0 406.0 L 1053.0 406.0 L 1054.0 405.0 L 1069.0 405.0 L 1070.0 406.0 L 1070.0 410.0 L 1069.0 411.0 L 1069.0 417.0 L 1068.0 418.0 L 1068.0 422.0 L 1067.0 423.0 L 1067.0 428.0 L 1066.0 429.0 L 1064.0 446.0 L 1063.0 447.0 L 1063.0 451.0 L 1062.0 452.0 L 1062.0 456.0 L 1061.0 457.0 L 1061.0 461.0 L 1060.0 462.0 L 1060.0 466.0 L 1059.0 467.0 L 1059.0 472.0 L 1057.0 477.0 L 1056.0 486.0 L 1055.0 487.0 L 1055.0 490.0 L 1053.0 495.0 L 1053.0 499.0 L 1051.0 504.0 L 1051.0 508.0 L 1050.0 509.0 L 1050.0 512.0 L 1048.0 517.0 L 1048.0 521.0 L 1047.0 522.0 L 1047.0 525.0 L 1046.0 526.0 L 1046.0 529.0 L 1045.0 530.0 L 1045.0 533.0 L 1044.0 534.0 L 1041.0 549.0 L 1038.0 553.0 L 1018.0 557.0 L 1017.0 562.0 L 1031.0 562.0 L 1032.0 561.0 L 1074.0 561.0 L 1075.0 562.0 L 1090.0 562.0 L 1092.0 557.0 L 1090.0 556.0 L 1086.0 556.0 L 1085.0 555.0 L 1081.0 555.0 L 1080.0 554.0 L 1077.0 554.0 L 1072.0 552.0 L 1072.0 543.0 L 1073.0 542.0 L 1073.0 536.0 L 1074.0 535.0 L 1074.0 529.0 L 1075.0 528.0 L 1077.0 511.0 L 1078.0 510.0 L 1078.0 506.0 L 1079.0 505.0 L 1079.0 501.0 L 1080.0 500.0 L 1080.0 495.0 L 1081.0 494.0 L 1081.0 490.0 L 1082.0 489.0 L 1082.0 485.0 L 1083.0 484.0 L 1083.0 480.0 L 1084.0 479.0 L 1084.0 474.0 L 1086.0 469.0 L 1086.0 465.0 L 1088.0 460.0 L 1089.0 451.0 L 1090.0 450.0 L 1091.0 442.0 L 1093.0 437.0 L 1093.0 433.0 L 1094.0 432.0 L 1094.0 429.0 L 1095.0 428.0 L 1095.0 425.0 L 1096.0 424.0 L 1096.0 421.0 L 1098.0 416.0 L 1099.0 408.0 L 1101.0 405.0 L 1110.0 405.0 L 1111.0 406.0 L 1117.0 406.0 L 1118.0 407.0 L 1122.0 407.0 L 1123.0 408.0 L 1133.0 410.0 L 1137.0 412.0 L 1141.0 416.0 L 1143.0 420.0 L 1143.0 429.0 L 1146.0 429.0 L 1148.0 428.0 L 1150.0 418.0 L 1154.0 407.0 L 1154.0 404.0 L 1155.0 403.0 L 1155.0 396.0 L 1153.0 394.0 L 1135.0 394.0 L 1134.0 395.0 L 1116.0 395.0 L 1115.0 396.0 L 1068.0 396.0 L 1067.0 395.0 Z M 938.0 394.0 L 936.0 400.0 L 944.0 401.0 L 945.0 402.0 L 949.0 402.0 L 954.0 404.0 L 953.0 420.0 L 952.0 421.0 L 951.0 432.0 L 950.0 433.0 L 950.0 437.0 L 949.0 438.0 L 949.0 443.0 L 948.0 444.0 L 948.0 448.0 L 947.0 449.0 L 947.0 453.0 L 946.0 454.0 L 946.0 459.0 L 945.0 460.0 L 943.0 474.0 L 941.0 479.0 L 941.0 483.0 L 939.0 488.0 L 938.0 497.0 L 937.0 498.0 L 937.0 501.0 L 936.0 502.0 L 936.0 505.0 L 934.0 510.0 L 934.0 514.0 L 933.0 515.0 L 933.0 518.0 L 932.0 519.0 L 932.0 522.0 L 931.0 523.0 L 931.0 526.0 L 930.0 527.0 L 927.0 542.0 L 925.0 546.0 L 925.0 549.0 L 922.0 553.0 L 919.0 553.0 L 918.0 554.0 L 915.0 554.0 L 914.0 555.0 L 911.0 555.0 L 910.0 556.0 L 905.0 557.0 L 904.0 562.0 L 917.0 562.0 L 918.0 561.0 L 959.0 561.0 L 960.0 562.0 L 973.0 562.0 L 974.0 557.0 L 969.0 555.0 L 966.0 555.0 L 965.0 554.0 L 957.0 553.0 L 956.0 552.0 L 956.0 545.0 L 957.0 544.0 L 957.0 539.0 L 958.0 538.0 L 958.0 534.0 L 959.0 533.0 L 959.0 527.0 L 960.0 526.0 L 960.0 522.0 L 961.0 521.0 L 961.0 516.0 L 962.0 515.0 L 962.0 511.0 L 963.0 510.0 L 963.0 505.0 L 964.0 504.0 L 964.0 500.0 L 965.0 499.0 L 965.0 495.0 L 966.0 494.0 L 968.0 480.0 L 970.0 475.0 L 972.0 461.0 L 973.0 460.0 L 973.0 457.0 L 974.0 456.0 L 974.0 453.0 L 976.0 448.0 L 976.0 444.0 L 977.0 443.0 L 977.0 440.0 L 978.0 439.0 L 978.0 436.0 L 979.0 435.0 L 979.0 432.0 L 980.0 431.0 L 980.0 428.0 L 981.0 427.0 L 981.0 424.0 L 982.0 423.0 L 982.0 420.0 L 983.0 419.0 L 983.0 416.0 L 984.0 415.0 L 986.0 405.0 L 988.0 403.0 L 1005.0 400.0 L 1006.0 399.0 L 1007.0 394.0 L 1001.0 394.0 L 1000.0 395.0 L 987.0 395.0 L 986.0 396.0 L 961.0 396.0 L 960.0 395.0 L 946.0 395.0 L 945.0 394.0 Z M 737.0 394.0 L 737.0 396.0 L 735.0 400.0 L 740.0 400.0 L 741.0 401.0 L 750.0 402.0 L 754.0 404.0 L 753.0 412.0 L 746.0 431.0 L 746.0 434.0 L 744.0 437.0 L 744.0 440.0 L 743.0 441.0 L 743.0 443.0 L 742.0 444.0 L 742.0 446.0 L 741.0 447.0 L 730.0 482.0 L 728.0 485.0 L 726.0 493.0 L 724.0 496.0 L 722.0 504.0 L 720.0 507.0 L 720.0 509.0 L 717.0 515.0 L 716.0 520.0 L 714.0 523.0 L 713.0 528.0 L 711.0 531.0 L 709.0 538.0 L 706.0 543.0 L 705.0 548.0 L 701.0 553.0 L 698.0 553.0 L 697.0 554.0 L 694.0 554.0 L 693.0 555.0 L 690.0 555.0 L 689.0 556.0 L 684.0 557.0 L 682.0 562.0 L 691.0 562.0 L 692.0 561.0 L 728.0 561.0 L 729.0 562.0 L 740.0 562.0 L 741.0 561.0 L 742.0 557.0 L 737.0 556.0 L 736.0 555.0 L 733.0 555.0 L 732.0 554.0 L 725.0 553.0 L 724.0 552.0 L 724.0 547.0 L 725.0 546.0 L 725.0 542.0 L 727.0 537.0 L 729.0 523.0 L 730.0 522.0 L 730.0 519.0 L 732.0 514.0 L 732.0 510.0 L 733.0 509.0 L 733.0 506.0 L 734.0 505.0 L 734.0 502.0 L 735.0 501.0 L 738.0 486.0 L 740.0 482.0 L 742.0 471.0 L 744.0 467.0 L 744.0 464.0 L 747.0 456.0 L 747.0 453.0 L 749.0 450.0 L 749.0 447.0 L 752.0 440.0 L 752.0 437.0 L 757.0 424.0 L 759.0 425.0 L 759.0 432.0 L 760.0 433.0 L 761.0 451.0 L 762.0 452.0 L 762.0 461.0 L 763.0 462.0 L 764.0 478.0 L 765.0 479.0 L 765.0 486.0 L 766.0 487.0 L 766.0 494.0 L 767.0 495.0 L 767.0 502.0 L 768.0 503.0 L 768.0 510.0 L 769.0 511.0 L 769.0 518.0 L 770.0 519.0 L 770.0 527.0 L 771.0 528.0 L 771.0 536.0 L 772.0 537.0 L 773.0 560.0 L 775.0 560.0 L 792.0 548.0 L 794.0 541.0 L 796.0 538.0 L 796.0 536.0 L 799.0 531.0 L 799.0 529.0 L 812.0 503.0 L 817.0 496.0 L 819.0 491.0 L 821.0 489.0 L 831.0 471.0 L 840.0 458.0 L 844.0 450.0 L 850.0 442.0 L 851.0 439.0 L 859.0 427.0 L 862.0 425.0 L 863.0 426.0 L 863.0 429.0 L 862.0 430.0 L 862.0 437.0 L 861.0 438.0 L 861.0 444.0 L 860.0 445.0 L 860.0 451.0 L 859.0 452.0 L 859.0 458.0 L 858.0 459.0 L 858.0 465.0 L 857.0 466.0 L 856.0 480.0 L 855.0 481.0 L 855.0 486.0 L 854.0 487.0 L 854.0 492.0 L 853.0 493.0 L 853.0 499.0 L 852.0 500.0 L 851.0 510.0 L 850.0 511.0 L 850.0 516.0 L 849.0 517.0 L 849.0 521.0 L 848.0 522.0 L 848.0 526.0 L 847.0 527.0 L 847.0 531.0 L 846.0 532.0 L 846.0 536.0 L 844.0 541.0 L 843.0 549.0 L 841.0 553.0 L 838.0 553.0 L 837.0 554.0 L 834.0 554.0 L 833.0 555.0 L 823.0 557.0 L 822.0 562.0 L 837.0 562.0 L 838.0 561.0 L 875.0 561.0 L 876.0 562.0 L 891.0 562.0 L 893.0 558.0 L 892.0 556.0 L 887.0 556.0 L 886.0 555.0 L 883.0 555.0 L 882.0 554.0 L 879.0 554.0 L 874.0 552.0 L 875.0 535.0 L 876.0 534.0 L 876.0 526.0 L 877.0 525.0 L 877.0 517.0 L 878.0 516.0 L 878.0 509.0 L 879.0 508.0 L 879.0 502.0 L 880.0 501.0 L 880.0 495.0 L 881.0 494.0 L 881.0 487.0 L 882.0 486.0 L 882.0 481.0 L 883.0 480.0 L 884.0 467.0 L 885.0 466.0 L 885.0 461.0 L 886.0 460.0 L 886.0 455.0 L 887.0 454.0 L 887.0 450.0 L 888.0 449.0 L 888.0 444.0 L 889.0 443.0 L 889.0 439.0 L 890.0 438.0 L 890.0 434.0 L 891.0 433.0 L 891.0 428.0 L 892.0 427.0 L 892.0 423.0 L 894.0 418.0 L 894.0 414.0 L 895.0 413.0 L 896.0 406.0 L 898.0 403.0 L 915.0 400.0 L 916.0 399.0 L 917.0 394.0 L 912.0 394.0 L 911.0 395.0 L 897.0 395.0 L 896.0 396.0 L 870.0 396.0 L 869.0 395.0 L 865.0 395.0 L 846.0 433.0 L 844.0 435.0 L 843.0 438.0 L 836.0 448.0 L 831.0 458.0 L 827.0 463.0 L 826.0 466.0 L 822.0 471.0 L 821.0 474.0 L 817.0 479.0 L 816.0 482.0 L 812.0 487.0 L 811.0 490.0 L 809.0 492.0 L 808.0 495.0 L 797.0 512.0 L 795.0 511.0 L 795.0 505.0 L 794.0 504.0 L 794.0 498.0 L 793.0 497.0 L 793.0 490.0 L 792.0 489.0 L 792.0 482.0 L 791.0 481.0 L 791.0 472.0 L 790.0 471.0 L 789.0 454.0 L 788.0 453.0 L 788.0 442.0 L 787.0 441.0 L 787.0 433.0 L 786.0 432.0 L 786.0 418.0 L 785.0 417.0 L 785.0 400.0 L 784.0 399.0 L 784.0 395.0 L 782.0 395.0 L 781.0 396.0 L 755.0 396.0 L 754.0 395.0 L 742.0 395.0 L 741.0 394.0 Z M 346.0 394.0 L 344.0 400.0 L 348.0 400.0 L 349.0 401.0 L 353.0 401.0 L 354.0 402.0 L 361.0 403.0 L 363.0 405.0 L 362.0 415.0 L 361.0 416.0 L 361.0 421.0 L 360.0 422.0 L 360.0 428.0 L 359.0 429.0 L 359.0 434.0 L 358.0 435.0 L 358.0 439.0 L 357.0 440.0 L 357.0 444.0 L 356.0 445.0 L 356.0 450.0 L 355.0 451.0 L 355.0 455.0 L 354.0 456.0 L 354.0 460.0 L 353.0 461.0 L 353.0 465.0 L 352.0 466.0 L 350.0 480.0 L 348.0 485.0 L 347.0 494.0 L 346.0 495.0 L 346.0 498.0 L 345.0 499.0 L 345.0 502.0 L 343.0 507.0 L 343.0 511.0 L 342.0 512.0 L 342.0 515.0 L 341.0 516.0 L 341.0 519.0 L 340.0 520.0 L 340.0 523.0 L 339.0 524.0 L 339.0 527.0 L 338.0 528.0 L 338.0 531.0 L 337.0 532.0 L 337.0 535.0 L 336.0 536.0 L 333.0 551.0 L 331.0 553.0 L 328.0 553.0 L 327.0 554.0 L 319.0 555.0 L 318.0 556.0 L 313.0 557.0 L 312.0 562.0 L 322.0 562.0 L 323.0 561.0 L 367.0 561.0 L 368.0 562.0 L 381.0 562.0 L 382.0 560.0 L 382.0 557.0 L 381.0 556.0 L 365.0 553.0 L 364.0 552.0 L 364.0 548.0 L 365.0 547.0 L 365.0 542.0 L 366.0 541.0 L 368.0 524.0 L 369.0 523.0 L 369.0 519.0 L 370.0 518.0 L 370.0 514.0 L 371.0 513.0 L 371.0 508.0 L 372.0 507.0 L 372.0 503.0 L 373.0 502.0 L 375.0 488.0 L 377.0 486.0 L 389.0 486.0 L 390.0 487.0 L 390.0 490.0 L 391.0 491.0 L 397.0 511.0 L 399.0 514.0 L 402.0 524.0 L 404.0 527.0 L 405.0 532.0 L 409.0 539.0 L 409.0 541.0 L 414.0 551.0 L 418.0 557.0 L 423.0 562.0 L 426.0 564.0 L 429.0 564.0 L 430.0 565.0 L 456.0 565.0 L 457.0 564.0 L 464.0 564.0 L 465.0 558.0 L 459.0 558.0 L 450.0 553.0 L 445.0 548.0 L 438.0 538.0 L 427.0 515.0 L 426.0 510.0 L 424.0 507.0 L 422.0 499.0 L 420.0 496.0 L 420.0 494.0 L 415.0 481.0 L 415.0 479.0 L 416.0 478.0 L 424.0 476.0 L 432.0 472.0 L 442.0 465.0 L 448.0 459.0 L 455.0 449.0 L 456.0 445.0 L 458.0 442.0 L 458.0 439.0 L 460.0 434.0 L 460.0 428.0 L 461.0 427.0 L 460.0 416.0 L 457.0 408.0 L 454.0 404.0 L 449.0 400.0 L 439.0 396.0 L 434.0 396.0 L 433.0 395.0 L 409.0 395.0 L 408.0 396.0 L 368.0 396.0 L 367.0 395.0 L 354.0 395.0 L 353.0 394.0 Z M 421.0 407.0 L 427.0 413.0 L 429.0 418.0 L 429.0 422.0 L 430.0 423.0 L 429.0 440.0 L 428.0 441.0 L 428.0 445.0 L 427.0 446.0 L 426.0 451.0 L 424.0 454.0 L 424.0 456.0 L 420.0 462.0 L 413.0 469.0 L 407.0 473.0 L 405.0 473.0 L 401.0 475.0 L 397.0 475.0 L 396.0 476.0 L 385.0 476.0 L 384.0 475.0 L 380.0 475.0 L 379.0 474.0 L 380.0 462.0 L 382.0 457.0 L 382.0 453.0 L 384.0 448.0 L 384.0 444.0 L 386.0 439.0 L 386.0 435.0 L 387.0 434.0 L 387.0 431.0 L 388.0 430.0 L 389.0 422.0 L 390.0 421.0 L 390.0 418.0 L 391.0 417.0 L 393.0 407.0 L 395.0 405.0 L 401.0 405.0 L 402.0 404.0 L 412.0 404.0 L 413.0 405.0 L 417.0 405.0 Z M 331.0 394.0 L 325.0 394.0 L 324.0 395.0 L 311.0 395.0 L 310.0 396.0 L 289.0 396.0 L 288.0 395.0 L 275.0 395.0 L 274.0 394.0 L 269.0 394.0 L 268.0 400.0 L 275.0 401.0 L 276.0 402.0 L 280.0 402.0 L 285.0 404.0 L 285.0 433.0 L 284.0 434.0 L 284.0 448.0 L 283.0 449.0 L 283.0 458.0 L 282.0 459.0 L 282.0 467.0 L 281.0 468.0 L 281.0 476.0 L 280.0 477.0 L 280.0 484.0 L 279.0 485.0 L 278.0 497.0 L 277.0 498.0 L 277.0 502.0 L 276.0 503.0 L 273.0 518.0 L 272.0 519.0 L 271.0 524.0 L 265.0 536.0 L 256.0 546.0 L 247.0 551.0 L 245.0 551.0 L 241.0 553.0 L 220.0 553.0 L 209.0 548.0 L 204.0 543.0 L 200.0 536.0 L 200.0 534.0 L 199.0 533.0 L 199.0 528.0 L 198.0 527.0 L 198.0 515.0 L 199.0 514.0 L 199.0 505.0 L 200.0 504.0 L 200.0 498.0 L 201.0 497.0 L 201.0 492.0 L 202.0 491.0 L 203.0 481.0 L 205.0 476.0 L 205.0 472.0 L 206.0 471.0 L 206.0 468.0 L 207.0 467.0 L 207.0 464.0 L 208.0 463.0 L 208.0 460.0 L 210.0 455.0 L 210.0 451.0 L 212.0 447.0 L 212.0 444.0 L 213.0 443.0 L 216.0 428.0 L 217.0 427.0 L 219.0 417.0 L 222.0 410.0 L 222.0 407.0 L 225.0 403.0 L 228.0 403.0 L 233.0 401.0 L 237.0 401.0 L 238.0 400.0 L 242.0 400.0 L 243.0 399.0 L 244.0 394.0 L 224.0 395.0 L 223.0 396.0 L 197.0 396.0 L 196.0 395.0 L 182.0 395.0 L 181.0 394.0 L 174.0 394.0 L 173.0 400.0 L 185.0 402.0 L 186.0 403.0 L 188.0 403.0 L 190.0 405.0 L 190.0 412.0 L 189.0 413.0 L 189.0 419.0 L 188.0 420.0 L 186.0 437.0 L 185.0 438.0 L 185.0 442.0 L 184.0 443.0 L 184.0 447.0 L 183.0 448.0 L 183.0 453.0 L 181.0 458.0 L 181.0 462.0 L 180.0 463.0 L 180.0 467.0 L 178.0 472.0 L 176.0 486.0 L 175.0 487.0 L 174.0 495.0 L 173.0 496.0 L 173.0 500.0 L 172.0 501.0 L 172.0 505.0 L 171.0 506.0 L 171.0 512.0 L 170.0 513.0 L 170.0 531.0 L 171.0 532.0 L 171.0 537.0 L 176.0 548.0 L 184.0 556.0 L 191.0 560.0 L 193.0 560.0 L 200.0 563.0 L 205.0 563.0 L 206.0 564.0 L 231.0 564.0 L 232.0 563.0 L 236.0 563.0 L 237.0 562.0 L 240.0 562.0 L 241.0 561.0 L 246.0 560.0 L 254.0 556.0 L 260.0 552.0 L 272.0 540.0 L 280.0 526.0 L 280.0 524.0 L 282.0 521.0 L 282.0 519.0 L 285.0 512.0 L 285.0 509.0 L 286.0 508.0 L 286.0 505.0 L 287.0 504.0 L 287.0 501.0 L 288.0 500.0 L 288.0 497.0 L 290.0 492.0 L 292.0 478.0 L 294.0 473.0 L 296.0 459.0 L 298.0 454.0 L 298.0 450.0 L 299.0 449.0 L 299.0 446.0 L 300.0 445.0 L 300.0 442.0 L 302.0 437.0 L 302.0 433.0 L 305.0 425.0 L 305.0 422.0 L 306.0 421.0 L 306.0 418.0 L 307.0 417.0 L 309.0 407.0 L 312.0 403.0 L 315.0 403.0 L 316.0 402.0 L 324.0 401.0 L 325.0 400.0 L 330.0 399.0 Z M 609.0 399.0 L 603.0 396.0 L 601.0 396.0 L 597.0 394.0 L 594.0 394.0 L 593.0 393.0 L 589.0 393.0 L 588.0 392.0 L 572.0 392.0 L 571.0 393.0 L 566.0 393.0 L 565.0 394.0 L 562.0 394.0 L 561.0 395.0 L 558.0 395.0 L 557.0 396.0 L 552.0 397.0 L 534.0 406.0 L 526.0 412.0 L 513.0 424.0 L 513.0 425.0 L 505.0 434.0 L 502.0 440.0 L 498.0 445.0 L 488.0 467.0 L 488.0 469.0 L 486.0 473.0 L 486.0 476.0 L 484.0 480.0 L 483.0 487.0 L 482.0 488.0 L 481.0 500.0 L 480.0 501.0 L 480.0 524.0 L 481.0 525.0 L 482.0 534.0 L 488.0 547.0 L 491.0 551.0 L 499.0 558.0 L 505.0 561.0 L 507.0 561.0 L 511.0 563.0 L 515.0 563.0 L 516.0 564.0 L 540.0 564.0 L 541.0 563.0 L 545.0 563.0 L 546.0 562.0 L 549.0 562.0 L 550.0 561.0 L 555.0 560.0 L 570.0 553.0 L 580.0 546.0 L 594.0 533.0 L 594.0 532.0 L 603.0 522.0 L 608.0 513.0 L 610.0 511.0 L 619.0 491.0 L 619.0 489.0 L 622.0 482.0 L 624.0 471.0 L 625.0 470.0 L 626.0 457.0 L 627.0 456.0 L 627.0 431.0 L 626.0 430.0 L 625.0 422.0 L 624.0 421.0 L 623.0 416.0 L 620.0 412.0 L 619.0 409.0 Z M 573.0 403.0 L 580.0 406.0 L 588.0 414.0 L 592.0 423.0 L 593.0 432.0 L 594.0 433.0 L 594.0 447.0 L 595.0 448.0 L 595.0 450.0 L 594.0 451.0 L 594.0 465.0 L 593.0 466.0 L 592.0 481.0 L 591.0 482.0 L 590.0 492.0 L 589.0 493.0 L 587.0 504.0 L 586.0 505.0 L 584.0 513.0 L 582.0 516.0 L 582.0 518.0 L 576.0 530.0 L 572.0 536.0 L 560.0 548.0 L 550.0 553.0 L 547.0 553.0 L 546.0 554.0 L 537.0 554.0 L 536.0 553.0 L 533.0 553.0 L 526.0 550.0 L 519.0 542.0 L 515.0 532.0 L 514.0 522.0 L 513.0 521.0 L 513.0 500.0 L 514.0 499.0 L 514.0 488.0 L 515.0 487.0 L 515.0 481.0 L 516.0 480.0 L 516.0 475.0 L 517.0 474.0 L 517.0 469.0 L 518.0 468.0 L 518.0 464.0 L 519.0 463.0 L 520.0 456.0 L 521.0 455.0 L 524.0 444.0 L 526.0 441.0 L 526.0 439.0 L 532.0 427.0 L 539.0 417.0 L 549.0 408.0 L 557.0 404.0 L 560.0 404.0 L 561.0 403.0 Z M 155.0 396.0 L 150.0 394.0 L 147.0 394.0 L 146.0 393.0 L 142.0 393.0 L 141.0 392.0 L 125.0 392.0 L 124.0 393.0 L 116.0 394.0 L 115.0 395.0 L 110.0 396.0 L 107.0 398.0 L 105.0 398.0 L 99.0 401.0 L 86.0 410.0 L 72.0 423.0 L 72.0 424.0 L 61.0 437.0 L 60.0 440.0 L 55.0 447.0 L 51.0 456.0 L 32.0 456.0 L 31.0 457.0 L 28.0 465.0 L 39.0 465.0 L 40.0 466.0 L 45.0 466.0 L 46.0 467.0 L 45.0 472.0 L 44.0 473.0 L 44.0 475.0 L 42.0 479.0 L 42.0 482.0 L 41.0 483.0 L 41.0 486.0 L 40.0 487.0 L 23.0 487.0 L 21.0 491.0 L 20.0 496.0 L 37.0 496.0 L 38.0 497.0 L 37.0 509.0 L 36.0 510.0 L 36.0 528.0 L 37.0 529.0 L 37.0 535.0 L 38.0 536.0 L 39.0 543.0 L 45.0 554.0 L 52.0 560.0 L 62.0 564.0 L 84.0 564.0 L 85.0 563.0 L 90.0 563.0 L 91.0 562.0 L 98.0 561.0 L 99.0 560.0 L 104.0 559.0 L 109.0 556.0 L 111.0 556.0 L 119.0 552.0 L 127.0 546.0 L 127.0 544.0 L 128.0 543.0 L 128.0 537.0 L 113.0 545.0 L 111.0 545.0 L 105.0 548.0 L 101.0 548.0 L 100.0 549.0 L 83.0 549.0 L 79.0 547.0 L 73.0 541.0 L 69.0 533.0 L 69.0 530.0 L 68.0 529.0 L 68.0 522.0 L 67.0 521.0 L 67.0 507.0 L 68.0 506.0 L 68.0 498.0 L 70.0 496.0 L 106.0 496.0 L 109.0 491.0 L 110.0 487.0 L 71.0 487.0 L 70.0 486.0 L 70.0 482.0 L 71.0 481.0 L 72.0 469.0 L 75.0 465.0 L 120.0 465.0 L 120.0 463.0 L 123.0 456.0 L 77.0 456.0 L 76.0 455.0 L 80.0 441.0 L 89.0 422.0 L 95.0 414.0 L 104.0 406.0 L 109.0 404.0 L 123.0 404.0 L 131.0 407.0 L 138.0 414.0 L 140.0 419.0 L 141.0 428.0 L 143.0 428.0 L 150.0 423.0 L 158.0 415.0 L 161.0 410.0 L 161.0 402.0 L 159.0 399.0 Z M 876.0 293.0 L 876.0 292.0 L 864.0 283.0 L 849.0 276.0 L 839.0 274.0 L 838.0 273.0 L 834.0 273.0 L 833.0 272.0 L 819.0 271.0 L 818.0 270.0 L 781.0 270.0 L 780.0 271.0 L 774.0 271.0 L 773.0 272.0 L 767.0 272.0 L 766.0 273.0 L 760.0 273.0 L 759.0 274.0 L 752.0 274.0 L 751.0 275.0 L 744.0 275.0 L 743.0 276.0 L 722.0 277.0 L 721.0 278.0 L 705.0 278.0 L 704.0 279.0 L 685.0 279.0 L 684.0 278.0 L 674.0 278.0 L 673.0 277.0 L 664.0 276.0 L 663.0 275.0 L 658.0 274.0 L 653.0 271.0 L 647.0 265.0 L 645.0 261.0 L 645.0 250.0 L 651.0 237.0 L 655.0 231.0 L 640.0 240.0 L 638.0 240.0 L 631.0 244.0 L 629.0 244.0 L 622.0 247.0 L 619.0 247.0 L 615.0 249.0 L 606.0 250.0 L 605.0 251.0 L 600.0 251.0 L 599.0 252.0 L 593.0 252.0 L 592.0 253.0 L 571.0 254.0 L 570.0 255.0 L 516.0 255.0 L 515.0 254.0 L 498.0 254.0 L 497.0 253.0 L 472.0 252.0 L 471.0 251.0 L 461.0 251.0 L 460.0 250.0 L 452.0 250.0 L 451.0 249.0 L 442.0 249.0 L 441.0 248.0 L 423.0 247.0 L 422.0 246.0 L 407.0 246.0 L 406.0 245.0 L 394.0 245.0 L 393.0 246.0 L 379.0 246.0 L 378.0 247.0 L 371.0 247.0 L 370.0 248.0 L 365.0 248.0 L 364.0 249.0 L 359.0 249.0 L 358.0 250.0 L 351.0 251.0 L 350.0 252.0 L 339.0 255.0 L 328.0 260.0 L 313.0 270.0 L 300.0 284.0 L 300.0 285.0 L 301.0 285.0 L 310.0 279.0 L 312.0 279.0 L 316.0 277.0 L 319.0 277.0 L 320.0 276.0 L 324.0 276.0 L 325.0 275.0 L 333.0 275.0 L 334.0 274.0 L 360.0 274.0 L 361.0 275.0 L 382.0 276.0 L 383.0 277.0 L 391.0 277.0 L 392.0 278.0 L 399.0 278.0 L 400.0 279.0 L 415.0 280.0 L 416.0 281.0 L 430.0 282.0 L 431.0 283.0 L 438.0 283.0 L 439.0 284.0 L 448.0 284.0 L 449.0 285.0 L 458.0 285.0 L 459.0 286.0 L 470.0 286.0 L 471.0 287.0 L 491.0 287.0 L 492.0 288.0 L 530.0 287.0 L 531.0 286.0 L 538.0 286.0 L 539.0 285.0 L 552.0 284.0 L 553.0 283.0 L 562.0 282.0 L 566.0 280.0 L 576.0 278.0 L 577.0 277.0 L 585.0 275.0 L 588.0 273.0 L 590.0 273.0 L 618.0 258.0 L 619.0 260.0 L 616.0 265.0 L 616.0 267.0 L 613.0 274.0 L 613.0 287.0 L 616.0 294.0 L 622.0 300.0 L 630.0 304.0 L 636.0 305.0 L 637.0 306.0 L 641.0 306.0 L 642.0 307.0 L 647.0 307.0 L 648.0 308.0 L 681.0 308.0 L 682.0 307.0 L 699.0 306.0 L 700.0 305.0 L 705.0 305.0 L 706.0 304.0 L 710.0 304.0 L 711.0 303.0 L 716.0 303.0 L 717.0 302.0 L 726.0 301.0 L 727.0 300.0 L 730.0 300.0 L 731.0 299.0 L 734.0 299.0 L 735.0 298.0 L 738.0 298.0 L 739.0 297.0 L 742.0 297.0 L 743.0 296.0 L 746.0 296.0 L 747.0 295.0 L 762.0 292.0 L 763.0 291.0 L 765.0 291.0 L 769.0 289.0 L 772.0 289.0 L 773.0 288.0 L 776.0 288.0 L 777.0 287.0 L 781.0 287.0 L 782.0 286.0 L 786.0 286.0 L 787.0 285.0 L 793.0 285.0 L 794.0 284.0 L 804.0 284.0 L 805.0 283.0 L 825.0 283.0 L 826.0 284.0 L 836.0 284.0 L 837.0 285.0 L 843.0 285.0 L 844.0 286.0 L 849.0 286.0 L 850.0 287.0 L 859.0 288.0 L 860.0 289.0 L 863.0 289.0 L 867.0 291.0 L 870.0 291.0 L 871.0 292.0 Z M 522.0 120.0 L 522.0 123.0 L 528.0 134.0 L 539.0 144.0 L 548.0 148.0 L 557.0 149.0 L 558.0 150.0 L 576.0 150.0 L 577.0 149.0 L 590.0 148.0 L 591.0 147.0 L 606.0 144.0 L 609.0 142.0 L 612.0 142.0 L 613.0 141.0 L 624.0 138.0 L 627.0 136.0 L 632.0 135.0 L 637.0 132.0 L 644.0 130.0 L 649.0 127.0 L 651.0 127.0 L 658.0 123.0 L 660.0 123.0 L 690.0 108.0 L 692.0 106.0 L 701.0 102.0 L 701.0 101.0 L 692.0 92.0 L 691.0 89.0 L 695.0 86.0 L 708.0 86.0 L 709.0 87.0 L 719.0 88.0 L 724.0 90.0 L 732.0 90.0 L 733.0 89.0 L 736.0 89.0 L 741.0 87.0 L 746.0 87.0 L 747.0 86.0 L 768.0 86.0 L 769.0 87.0 L 781.0 88.0 L 782.0 89.0 L 797.0 92.0 L 798.0 93.0 L 809.0 96.0 L 812.0 98.0 L 814.0 98.0 L 817.0 100.0 L 819.0 100.0 L 822.0 102.0 L 824.0 102.0 L 828.0 104.0 L 831.0 107.0 L 831.0 109.0 L 832.0 110.0 L 832.0 118.0 L 830.0 122.0 L 824.0 127.0 L 816.0 127.0 L 815.0 126.0 L 813.0 126.0 L 812.0 127.0 L 807.0 127.0 L 806.0 128.0 L 804.0 128.0 L 800.0 131.0 L 798.0 136.0 L 799.0 141.0 L 802.0 144.0 L 807.0 146.0 L 809.0 148.0 L 808.0 151.0 L 805.0 154.0 L 800.0 155.0 L 799.0 156.0 L 797.0 156.0 L 796.0 155.0 L 781.0 154.0 L 780.0 155.0 L 769.0 155.0 L 768.0 156.0 L 759.0 157.0 L 758.0 158.0 L 750.0 160.0 L 747.0 162.0 L 745.0 162.0 L 725.0 174.0 L 712.0 187.0 L 705.0 197.0 L 703.0 201.0 L 703.0 203.0 L 701.0 206.0 L 700.0 212.0 L 699.0 213.0 L 699.0 226.0 L 703.0 235.0 L 709.0 241.0 L 717.0 245.0 L 719.0 245.0 L 723.0 247.0 L 726.0 247.0 L 727.0 248.0 L 740.0 248.0 L 741.0 249.0 L 743.0 248.0 L 759.0 248.0 L 760.0 247.0 L 769.0 247.0 L 770.0 246.0 L 786.0 245.0 L 787.0 244.0 L 801.0 243.0 L 802.0 242.0 L 810.0 242.0 L 811.0 241.0 L 819.0 241.0 L 820.0 240.0 L 833.0 240.0 L 834.0 239.0 L 863.0 239.0 L 864.0 240.0 L 872.0 240.0 L 873.0 241.0 L 878.0 241.0 L 879.0 242.0 L 884.0 242.0 L 885.0 243.0 L 892.0 244.0 L 893.0 245.0 L 901.0 247.0 L 920.0 256.0 L 932.0 264.0 L 938.0 270.0 L 939.0 270.0 L 950.0 281.0 L 950.0 282.0 L 952.0 282.0 L 955.0 279.0 L 959.0 272.0 L 959.0 270.0 L 961.0 266.0 L 962.0 251.0 L 946.0 239.0 L 928.0 230.0 L 926.0 230.0 L 923.0 228.0 L 921.0 228.0 L 914.0 225.0 L 911.0 225.0 L 910.0 224.0 L 907.0 224.0 L 902.0 222.0 L 898.0 222.0 L 897.0 221.0 L 893.0 221.0 L 892.0 220.0 L 887.0 220.0 L 886.0 219.0 L 877.0 219.0 L 876.0 218.0 L 860.0 218.0 L 859.0 217.0 L 818.0 218.0 L 817.0 219.0 L 796.0 220.0 L 795.0 221.0 L 786.0 221.0 L 785.0 222.0 L 783.0 222.0 L 782.0 221.0 L 783.0 219.0 L 787.0 217.0 L 789.0 217.0 L 801.0 211.0 L 803.0 209.0 L 808.0 207.0 L 813.0 203.0 L 816.0 202.0 L 824.0 196.0 L 838.0 182.0 L 846.0 168.0 L 846.0 166.0 L 848.0 162.0 L 848.0 159.0 L 849.0 158.0 L 849.0 153.0 L 850.0 152.0 L 850.0 144.0 L 849.0 143.0 L 849.0 136.0 L 848.0 135.0 L 848.0 131.0 L 849.0 130.0 L 851.0 130.0 L 852.0 129.0 L 865.0 129.0 L 866.0 130.0 L 873.0 130.0 L 874.0 131.0 L 880.0 131.0 L 881.0 132.0 L 890.0 132.0 L 891.0 133.0 L 908.0 133.0 L 909.0 132.0 L 916.0 131.0 L 920.0 129.0 L 927.0 122.0 L 930.0 115.0 L 924.0 115.0 L 923.0 114.0 L 919.0 114.0 L 915.0 112.0 L 911.0 108.0 L 912.0 104.0 L 914.0 102.0 L 920.0 101.0 L 921.0 100.0 L 929.0 100.0 L 930.0 101.0 L 936.0 101.0 L 938.0 102.0 L 945.0 88.0 L 945.0 86.0 L 947.0 82.0 L 947.0 79.0 L 948.0 78.0 L 948.0 73.0 L 947.0 71.0 L 941.0 71.0 L 940.0 70.0 L 937.0 70.0 L 936.0 69.0 L 933.0 69.0 L 932.0 68.0 L 927.0 67.0 L 922.0 64.0 L 920.0 64.0 L 913.0 60.0 L 911.0 60.0 L 902.0 55.0 L 897.0 54.0 L 892.0 51.0 L 889.0 51.0 L 878.0 47.0 L 864.0 46.0 L 863.0 45.0 L 863.0 37.0 L 861.0 33.0 L 857.0 30.0 L 851.0 29.0 L 850.0 28.0 L 843.0 28.0 L 842.0 27.0 L 828.0 27.0 L 827.0 28.0 L 801.0 29.0 L 800.0 30.0 L 792.0 30.0 L 791.0 31.0 L 783.0 31.0 L 782.0 32.0 L 774.0 32.0 L 773.0 33.0 L 765.0 33.0 L 764.0 34.0 L 735.0 35.0 L 734.0 36.0 L 720.0 36.0 L 719.0 35.0 L 705.0 35.0 L 704.0 34.0 L 691.0 33.0 L 690.0 32.0 L 687.0 32.0 L 686.0 31.0 L 683.0 31.0 L 679.0 29.0 L 673.0 28.0 L 670.0 26.0 L 668.0 26.0 L 663.0 23.0 L 661.0 23.0 L 655.0 20.0 L 657.0 31.0 L 658.0 32.0 L 661.0 43.0 L 665.0 50.0 L 665.0 52.0 L 664.0 53.0 L 656.0 53.0 L 655.0 52.0 L 650.0 52.0 L 649.0 51.0 L 642.0 50.0 L 639.0 48.0 L 629.0 45.0 L 618.0 39.0 L 616.0 39.0 L 616.0 41.0 L 618.0 44.0 L 618.0 47.0 L 626.0 63.0 L 633.0 73.0 L 633.0 75.0 L 632.0 76.0 L 623.0 75.0 L 622.0 74.0 L 619.0 74.0 L 614.0 72.0 L 610.0 72.0 L 609.0 71.0 L 606.0 71.0 L 605.0 70.0 L 602.0 70.0 L 597.0 68.0 L 593.0 68.0 L 592.0 67.0 L 589.0 67.0 L 588.0 66.0 L 585.0 66.0 L 584.0 65.0 L 579.0 64.0 L 579.0 66.0 L 588.0 84.0 L 590.0 86.0 L 596.0 97.0 L 594.0 100.0 L 575.0 99.0 L 574.0 98.0 L 569.0 98.0 L 568.0 97.0 L 559.0 96.0 L 558.0 95.0 L 555.0 95.0 L 554.0 94.0 L 551.0 94.0 L 546.0 92.0 L 546.0 95.0 L 552.0 106.0 L 566.0 121.0 L 566.0 123.0 L 562.0 126.0 L 555.0 126.0 L 554.0 125.0 L 549.0 125.0 L 548.0 124.0 L 543.0 124.0 L 542.0 123.0 L 536.0 123.0 L 535.0 122.0 L 531.0 122.0 L 530.0 121.0 L 525.0 121.0 L 524.0 120.0 Z " fill="#ffffff" fill-rule="evenodd"/>
</svg>
